<?xml version="1.0" encoding="UTF-8" standalone="no"?>
<svg
   xmlns:dc="http://purl.org/dc/elements/1.1/"
   xmlns:cc="http://creativecommons.org/ns#"
   xmlns:rdf="http://www.w3.org/1999/02/22-rdf-syntax-ns#"
   xmlns:svg="http://www.w3.org/2000/svg"
   xmlns="http://www.w3.org/2000/svg"
   viewBox="0 0 2560 621.40668"
   height="621.40668"
   width="2560"
   xml:space="preserve"
   id="svg2"
   version="1.1"><metadata
     id="metadata8"><rdf:RDF><cc:Work
         rdf:about=""><dc:format>image/svg+xml</dc:format><dc:type
           rdf:resource="http://purl.org/dc/dcmitype/StillImage" /></cc:Work></rdf:RDF></metadata><defs
     id="defs6"><clipPath
       id="clipPath18"
       clipPathUnits="userSpaceOnUse"><path
         id="path16"
         d="M 0,466.055 H 1920 V 0 H 0 Z" /></clipPath></defs><g
     transform="matrix(1.3333333,0,0,-1.3333333,0,621.40667)"
     id="g10"><g
       id="g12"><g
         clip-path="url(#clipPath18)"
         id="g14"><g
           transform="translate(112.7553,95.5749)"
           id="g20"><path
             id="path22"
             style="fill:#1f4493;fill-opacity:1;fill-rule:nonzero;stroke:none"
             d="m 0,0 c 52.619,0 59.062,55.84 59.062,112.755 0,74.633 -2.684,165.912 -150.34,166.446 V 201.884 C -91.278,86.445 -77.854,0 0,0 m -112.755,284.572 h 21.477 C 77.317,284.035 80.539,187.925 80.539,112.755 c 0,-90.741 -18.793,-127.789 -67.655,-127.789 -69.262,0 -95.035,56.378 -104.162,117.587 V -92.888 h -21.477 z" /></g><g
           transform="translate(320.535,89.6689)"
           id="g24"><path
             id="path26"
             style="fill:#1f4493;fill-opacity:1;fill-rule:nonzero;stroke:none"
             d="m 0,0 c 35.436,0 78.927,9.665 78.927,146.044 0,136.379 -43.491,146.044 -78.927,146.044 -35.438,0 -78.929,-9.665 -78.929,-146.044 C -78.929,9.665 -35.438,0 0,0 m -103.09,146.044 c 0,118.124 37.585,151.412 103.09,151.412 65.505,0 103.09,-33.288 103.09,-151.412 C 103.09,27.92 65.505,-5.371 0,-5.371 c -65.505,0 -103.09,33.291 -103.09,151.415" /></g><g
           transform="translate(447.7812,466.0546)"
           id="g28"><path
             id="path30"
             style="fill:#1f4493;fill-opacity:1;fill-rule:nonzero;stroke:none"
             d="m 0,0 h 21.477 v -191.682 c 9.127,60.134 33.826,113.828 99.868,113.828 22.552,0 38.658,-2.147 55.841,-10.738 v -21.479 c -17.183,11.814 -41.882,20.405 -60.674,20.405 -31.677,0 -70.874,-2.685 -87.52,-95.575 144.972,-0.535 164.302,-37.585 164.302,-120.808 v -71.411 h -21.477 v 69.801 c 0,101.478 -34.363,116.512 -143.36,117.049 -4.296,-26.845 -6.98,-61.209 -6.98,-104.162 V -377.46 H 0 Z" /></g><g
           transform="translate(846.1707,259.874)"
           id="g32"><path
             id="path34"
             style="fill:#1f4493;fill-opacity:1;fill-rule:nonzero;stroke:none"
             d="m 0,0 c -1.612,114.367 -49.4,121.883 -83.226,121.883 -23.086,0 -67.652,-8.59 -73.02,-121.883 z m -180.945,-24.161 c 0,121.345 43.491,151.412 97.719,151.412 71.949,0 107.387,-40.804 107.387,-132.62 h -180.407 c -0.538,-5.905 -0.538,-12.349 -0.538,-18.792 0,-112.755 40.807,-140.138 91.814,-140.138 49.399,0 73.56,35.435 85.909,100.941 h 5.369 C 8.053,-150.34 -19.867,-175.576 -83.226,-175.576 c -54.228,0 -97.719,33.291 -97.719,151.415" /></g><g
           transform="translate(896.6345,380.1473)"
           id="g36"><path
             id="path38"
             style="fill:#1f4493;fill-opacity:1;fill-rule:nonzero;stroke:none"
             d="m 0,0 h 21.477 v -198.665 c 0,-67.652 24.161,-90.741 55.303,-90.741 30.605,0 95.038,1.612 95.038,206.718 V 0 h 21.477 v -258.264 -1.073 c -0.537,-91.278 -50.471,-120.81 -113.831,-120.81 -41.344,0 -76.78,17.72 -76.78,57.989 h 5.369 c 0,-31.141 28.995,-48.862 65.505,-48.862 55.842,0 98.26,24.164 98.26,112.756 v 76.244 c -9.127,-61.208 -34.9,-117.586 -104.166,-117.586 -48.322,0 -67.115,36.51 -67.652,99.331 z" /></g><g
           transform="translate(1362.4034,118.6612)"
           id="g40"><path
             id="path42"
             style="fill:#1f4493;fill-opacity:1;fill-rule:nonzero;stroke:none"
             d="m 0,0 c 14.851,16.108 24.161,35.438 27.92,57.987 3.759,22.552 5.637,50.472 5.637,83.761 0,32.566 -2.415,56.458 -7.246,71.677 -4.834,15.211 -15.128,22.82 -30.873,22.82 -23.624,0 -40.186,-15.931 -49.666,-47.787 -9.488,-31.862 -14.228,-77.14 -14.228,-135.839 v -77.317 c 30.78,0.352 53.6,8.59 68.456,24.698 m -138.255,347.386 h 69.799 V 151.947 c 11.812,78.392 46.528,117.587 104.163,117.587 24.336,0 41.694,-9.934 52.081,-29.799 10.377,-19.867 15.568,-52.535 15.568,-97.987 0,-34.012 -3.044,-62.644 -9.127,-85.908 C 88.14,32.569 72.486,12.433 47.25,-4.562 22.014,-21.568 -16.56,-30.067 -68.456,-30.067 h -69.799 z" /></g><g
           transform="translate(1558.6531,132.3539)"
           id="g44"><path
             id="path46"
             style="fill:#1f4493;fill-opacity:1;fill-rule:nonzero;stroke:none"
             d="m 0,0 c 4.649,-12.349 14.851,-18.524 30.604,-18.524 23.979,0 40.716,15.923 50.203,47.785 9.48,31.854 14.228,77.132 14.228,135.842 v 1.072 6.443 C 76.78,172.258 59.951,167.424 44.566,158.122 29.17,148.809 16.729,134.942 7.249,116.509 -2.238,98.071 -6.978,75.611 -6.978,49.128 -6.978,28.724 -4.654,12.349 0,0 m 19.33,186.042 c 22.904,-5.371 47.962,-8.055 75.167,-8.055 -1.072,18.255 -5.553,34.9 -13.421,49.934 -7.878,15.033 -21.302,22.552 -40.269,22.552 -15.034,0 -28.106,-2.601 -39.195,-7.787 -11.1,-5.194 -16.646,-12.978 -16.646,-23.355 0,-16.831 11.452,-27.92 34.364,-33.289 M -76.777,43.757 c 0,26.125 3.665,48.14 11.006,66.043 7.333,17.892 19.95,32.391 37.853,43.488 17.893,11.092 42.417,18.433 73.556,22.014 -44.026,5.724 -66.04,20.405 -66.04,44.029 0,12.164 5.906,21.291 17.718,27.382 11.812,6.081 26.31,9.128 43.491,9.128 43.666,0 75.167,-7.166 94.497,-21.477 19.33,-14.321 29.17,-36.695 29.53,-67.115 V -44.297 H 95.035 V 65.771 C 83.223,-12.618 48.5,-51.813 -9.128,-51.813 c -45.1,0 -67.649,31.854 -67.649,95.57" /></g><g
           transform="translate(1750.335,380.1395)"
           id="g48"><path
             id="path50"
             style="fill:#1f4493;fill-opacity:1;fill-rule:nonzero;stroke:none"
             d="M 0,0 H 69.799 V -107.919 C 81.611,-30.604 114.9,8.055 169.665,8.055 v -69.799 c -20.05,10.018 -35.798,15.034 -47.25,15.034 -15.754,0 -28.455,-11.543 -38.12,-34.632 -9.665,-23.087 -14.496,-65.597 -14.496,-127.518 v -82.685 H 0 Z" /></g></g></g></g></svg>